<svg width="139" height="62" viewBox="0 0 139 62" fill="none" xmlns="http://www.w3.org/2000/svg">
<path d="M43.5236 0C44.5573 0 45.8929 0.0577557 47.5294 0.173652C49.1664 0.289164 50.9038 0.50671 52.7417 0.825137C54.5796 1.14356 56.4466 1.5775 58.3421 2.12734C60.2373 2.67717 61.9316 3.38641 63.4249 4.25467C64.9182 5.12332 66.1392 6.16562 67.0866 7.38118C68.0344 8.59675 68.5084 10.0152 68.5084 11.6359C68.5084 13.836 67.6753 15.5579 66.0097 16.8027C64.344 18.0475 62.3912 18.6697 60.1514 18.6697C60.0364 18.6697 59.7781 18.6262 59.3759 18.5392C58.9736 18.4526 58.5576 18.3367 58.1263 18.1919C57.6958 18.0475 57.3225 17.8735 57.0066 17.6709C56.6907 17.4684 56.5329 17.2224 56.5329 16.9328C56.5329 16.3541 56.8633 15.8763 57.5235 15.4997C58.184 15.1239 58.9022 14.8055 59.6773 14.5452C60.4528 14.2841 61.1706 13.9946 61.8311 13.6762C62.4916 13.3581 62.8221 12.9384 62.8221 12.4175C62.8221 11.4333 62.1184 10.5939 60.711 9.89895C59.3041 9.20472 57.6098 8.63987 55.6283 8.20593C53.6463 7.77161 51.5643 7.45318 49.3819 7.25065C47.1994 7.04812 45.3611 6.94686 43.8678 6.94686C42.4321 6.94686 40.5369 7.04812 38.1818 7.25065C35.827 7.45318 33.2854 7.77161 30.5571 8.20593C27.8291 8.63987 25.0579 9.21897 22.2432 9.94284C19.4288 10.6663 16.8731 11.5346 14.5756 12.5476C12.2782 13.5607 10.3826 14.7331 8.88928 16.0642C7.39597 17.396 6.59181 18.9011 6.47721 20.5799C6.36222 21.5641 6.9937 22.5336 8.37203 23.4889C9.75074 24.4441 11.56 25.3702 13.8001 26.2677C16.0399 27.1648 18.5819 28.0331 21.4249 28.8729C24.2679 29.7122 27.1254 30.5224 29.997 31.304C32.869 32.0856 35.597 32.8672 38.1818 33.6489C40.7665 34.4301 42.9204 35.1678 44.6437 35.8628C46.3093 36.5574 48.104 37.4115 50.0282 38.4249C51.9521 39.4375 53.7472 40.5953 55.4128 41.8979C57.0784 43.2001 58.4567 44.6621 59.5482 46.2831C60.6392 47.9041 61.1851 49.6988 61.1851 51.6671C61.1851 53.5195 60.7256 55.097 59.8068 56.3992C58.8877 57.7022 57.6671 58.773 56.1448 59.612C54.6228 60.4518 52.8854 61.0597 50.9325 61.4355C48.98 61.8121 46.9694 62 44.9019 62C40.2497 62 35.7266 61.5518 31.3326 60.6543C26.939 59.7572 22.6741 58.4688 18.5383 56.79C17.045 56.2113 15.4658 55.4732 13.8001 54.5757C12.1345 53.6786 10.6126 52.6366 9.23424 51.45C7.85554 50.2629 6.7068 48.9607 5.78766 47.5422C4.86852 46.1241 4.40933 44.5462 4.40933 42.8097C4.40933 41.9414 4.59614 41.0732 4.96938 40.2045C5.34261 39.3363 5.88813 38.5546 6.60595 37.86C7.32415 37.1654 8.20012 36.6013 9.23424 36.1666C10.268 35.7327 11.474 35.5155 12.8524 35.5155C13.1396 35.5155 13.4842 35.5444 13.8865 35.6026C14.288 35.6603 14.6329 35.7758 14.9198 35.9499C15.2071 36.1235 15.3508 36.326 15.3508 36.5574C15.3508 36.7892 15.0635 37.0788 14.4893 37.4261C13.5129 38.0048 12.6369 38.4969 11.8618 38.9023C11.0863 39.3074 10.4254 39.7125 9.87986 40.1179C9.33433 40.523 8.93207 40.9426 8.67382 41.377C8.41558 41.8113 8.28645 42.318 8.28645 42.8967C8.28645 43.765 8.55922 44.6044 9.10474 45.4145C9.65026 46.225 10.3253 46.9777 11.1291 47.6727C11.9332 48.367 12.7519 48.9749 13.5851 49.4959C14.4175 50.0172 15.1498 50.4223 15.7817 50.7118C19.917 52.8538 24.3683 54.4891 29.1356 55.618C33.9028 56.7469 38.6987 57.3114 43.5236 57.3114C44.385 57.3114 45.5192 57.2821 46.9266 57.224C48.3336 57.1666 49.7264 56.9637 51.1052 56.6164C52.4835 56.2695 53.6609 55.7481 54.6373 55.0535C55.6138 54.3589 56.102 53.3459 56.102 52.014C56.102 50.2775 55.2837 48.7 53.6463 47.2819C52.0098 45.8634 49.9996 44.5612 47.6158 43.3742C45.232 42.1875 42.6908 41.1598 39.991 40.2915C37.2917 39.4233 34.9083 38.6709 32.8404 38.0341C26.8671 36.2972 21.7695 34.7632 17.5478 33.4317C13.3264 32.0999 9.90889 30.783 7.29549 29.4808C4.6821 28.1782 2.7869 26.8322 1.60913 25.4426C0.431744 24.0533 -0.0996458 22.4034 0.0153422 20.4933C0.187633 17.7722 1.09226 15.37 2.72921 13.2857C4.36617 11.2019 6.46269 9.40725 9.0184 7.90175C11.5745 6.39664 14.4316 5.13756 17.5909 4.12491C20.7499 3.11149 23.9088 2.30099 27.0677 1.6934C30.227 1.08542 33.2564 0.6511 36.1571 0.390814C39.0578 0.130528 41.513 0 43.5236 0ZM75.3145 32.0421C76.1187 32.2158 76.8223 32.5919 77.4252 33.171C78.0284 33.7501 78.5307 34.3866 78.933 35.0816C79.3922 34.5603 79.9667 34.2707 80.6559 34.2133C81.3451 34.1552 82.006 34.2565 82.6375 34.5171C83.2693 34.7774 83.7862 35.1825 84.1884 35.7327C84.5903 36.2829 84.734 36.934 84.6194 37.6864C84.3894 38.7283 84.1739 40.0309 83.973 41.5941C83.772 43.157 83.6425 44.6621 83.5852 46.1095C83.5279 47.5564 83.5707 48.8013 83.7144 49.8436C83.858 50.8855 84.1598 51.4064 84.6194 51.4064C84.964 51.4064 85.38 50.9579 85.8682 50.0607C86.3568 49.1628 86.845 48.1067 87.3332 46.8911C87.8211 45.6752 88.2661 44.4596 88.6684 43.244C89.0707 42.0285 89.3289 41.1021 89.4435 40.4652C89.6162 39.8865 89.9035 39.4957 90.305 39.2931C90.7076 39.0902 91.0954 39.0325 91.4682 39.1191C91.8418 39.2061 92.1578 39.4233 92.416 39.7706C92.6743 40.1179 92.7178 40.5518 92.5455 41.0732C92.4302 41.4205 92.2437 42.0716 91.9855 43.0269C91.7272 43.9821 91.3968 45.0383 90.9945 46.1961C90.5926 47.3543 90.1185 48.5552 89.573 49.7997C89.0275 51.0445 88.3956 52.1446 87.6774 53.0998C86.9596 54.0551 86.1555 54.7929 85.265 55.3142C84.3753 55.8348 83.413 55.951 82.3792 55.6615C80.7136 55.1983 79.5076 54.1853 78.7603 52.622C78.3011 54.0112 77.6693 55.2707 76.8655 56.3992C76.0614 57.5282 75.0272 58.3533 73.7635 58.8743C72.5575 59.2797 71.4951 59.3659 70.5759 59.1349C68.9103 58.6717 67.5893 57.6298 66.6125 56.0088C65.6364 54.3878 64.9759 52.5061 64.6313 50.3641C64.2867 48.2226 64.2581 45.9936 64.5454 43.6783C64.8323 41.3627 65.4213 39.2785 66.3114 37.4261C67.2016 35.5737 68.3935 34.1117 69.8868 33.0409C71.3801 31.9697 73.1893 31.6367 75.3145 32.0421ZM77.5547 40.8129C77.4397 39.8283 77.2242 38.8731 76.9083 37.9471C76.5924 37.0206 76.1187 36.4997 75.4868 36.3838C74.568 36.2105 73.7494 36.5432 73.0316 37.3826C72.3134 38.222 71.7247 39.3363 71.2655 40.7259C70.8055 42.1151 70.4751 43.6348 70.2745 45.2847C70.0736 46.9342 70.0159 48.4975 70.1022 49.9737C70.1882 51.4499 70.4182 52.709 70.791 53.7509C71.1646 54.7929 71.7247 55.3719 72.4715 55.4878C73.218 55.6034 73.9217 55.1983 74.5822 54.2719C75.2427 53.3459 75.8169 52.1588 76.3055 50.7118C76.7933 49.2645 77.1665 47.6581 77.4252 45.8927C77.6838 44.1265 77.7266 42.4335 77.5547 40.8129ZM110.121 25.7902C110.236 26.4267 110.164 27.0201 109.906 27.5699C109.647 28.1201 109.259 28.6122 108.742 29.0465C108.226 29.4808 107.622 29.8424 106.933 30.1315C106.244 30.4211 105.526 30.624 104.779 30.7395C103.343 30.9132 101.936 30.7684 100.558 30.3056C99.1793 29.8424 98.4038 29.003 98.2315 27.7874C98.1742 27.6715 98.1455 27.4975 98.1455 27.2661V27.0058C98.2605 25.9635 98.7915 25.0664 99.7393 24.314C100.687 23.5613 101.907 23.0403 103.401 22.7508H103.659C103.659 22.8666 103.645 22.9968 103.616 23.1416C103.587 23.286 103.573 23.4165 103.573 23.532C103.458 24.2847 103.114 24.9651 102.539 25.5731C101.965 26.1811 101.362 26.6585 100.73 27.0058C100.098 27.3531 99.5239 27.5699 99.007 27.6573C98.4901 27.7435 98.2028 27.6138 98.1455 27.2661V27.0058C98.1455 26.9477 98.1597 26.9188 98.1887 26.9188C98.2174 26.9188 98.2315 26.8899 98.2315 26.8322C98.4615 25.9061 98.6192 24.9651 98.7056 24.0102C98.7915 23.0545 98.806 22.2152 98.7484 21.4917C98.6911 20.7682 98.5765 20.1748 98.4038 19.7113C98.2315 19.2484 97.9733 19.017 97.6287 19.017C97.2837 19.017 96.9823 19.2773 96.7241 19.7987C96.4654 20.3192 96.25 21.1879 96.0777 22.4034C95.905 23.619 95.7763 25.2111 95.6899 27.1795C95.604 29.1478 95.5321 31.5793 95.4745 34.4736C96.7959 34.3577 98.131 34.2853 99.4807 34.2565C100.831 34.2276 101.907 34.2133 102.712 34.2133C103.228 34.1552 103.746 34.1841 104.262 34.2996C104.779 34.4155 105.224 34.6326 105.598 34.9511C105.971 35.2695 106.272 35.6603 106.503 36.1235C106.732 36.5867 106.79 37.1077 106.675 37.6864C106.445 38.7283 106.229 40.0309 106.029 41.5941C105.828 43.157 105.698 44.6621 105.641 46.1095C105.583 47.5564 105.627 48.8013 105.77 49.8436C105.914 50.8855 106.244 51.4064 106.761 51.4064C107.105 51.4064 107.522 50.9579 108.01 50.0607C108.498 49.1628 108.972 48.1067 109.432 46.8911C109.891 45.6752 110.322 44.4596 110.724 43.244C111.126 42.0285 111.384 41.1021 111.499 40.4652C111.672 39.8865 111.959 39.4957 112.361 39.2931C112.763 39.0902 113.151 39.0325 113.524 39.1191C113.897 39.2061 114.213 39.4233 114.472 39.7706C114.73 40.1179 114.773 40.5518 114.601 41.0732C114.486 41.4205 114.299 42.0716 114.041 43.0269C113.782 43.9821 113.452 45.0383 113.05 46.1961C112.648 47.3543 112.174 48.5552 111.629 49.7997C111.083 51.0445 110.451 52.1446 109.733 53.0998C109.015 54.0551 108.226 54.7929 107.364 55.3142C106.503 55.8348 105.555 55.951 104.521 55.6615C102.97 55.1983 101.865 54.3589 101.204 53.143C100.543 51.9274 100.156 50.48 100.041 48.8013C99.9257 47.1225 99.9403 45.3279 100.084 43.4177C100.228 41.5071 100.299 39.6254 100.299 37.7734C99.6098 37.7734 98.8492 37.788 98.016 37.8169C97.1832 37.8454 96.3363 37.8889 95.4745 37.9471C95.4172 40.3782 95.4026 43.0846 95.4313 46.066C95.4603 49.0473 95.5035 52.3617 95.5608 56.0088C95.5608 57.0507 95.2162 57.9336 94.5271 58.6575C93.8375 59.3806 93.0769 59.8731 92.2437 60.1333C91.4113 60.394 90.6499 60.4229 89.9608 60.22C89.2716 60.0178 88.9266 59.54 88.9266 58.7872L89.5299 37.9471C88.7261 37.8889 88.1083 37.701 87.6774 37.3826C87.2469 37.0642 87.0169 36.7022 86.9887 36.2972C86.9596 35.8921 87.1609 35.5302 87.5915 35.2117C88.0224 34.8933 88.6971 34.705 89.6162 34.6473C89.7885 31.1738 90.0326 28.2791 90.3485 25.9635C90.6641 23.6483 91.1236 21.7808 91.7269 20.3627C92.3301 18.9446 93.1052 17.9312 94.053 17.3233C95.0008 16.7157 96.1927 16.3541 97.6287 16.2382C98.4901 16.1801 99.2939 16.3541 100.041 16.7592C100.787 17.1646 101.419 17.6998 101.936 18.3659C102.453 19.0313 102.87 19.7552 103.186 20.5364C103.501 21.318 103.659 22.0561 103.659 22.7508C105.268 22.5193 106.703 22.6784 107.967 23.2286C109.231 23.7784 109.948 24.6324 110.121 25.7902ZM121.665 32.0421C122.47 32.2158 123.173 32.5919 123.776 33.171C124.38 33.7501 124.882 34.3866 125.284 35.0816C125.743 34.5603 126.318 34.2707 127.007 34.2133C127.696 34.1552 128.357 34.2565 128.989 34.5171C129.621 34.7774 130.137 35.1825 130.54 35.7327C130.942 36.2829 131.085 36.934 130.97 37.6864C130.741 38.7283 130.525 40.0309 130.324 41.5941C130.123 43.157 129.994 44.6621 129.936 46.1095C129.879 47.5564 129.922 48.8013 130.066 49.8436C130.209 50.8855 130.511 51.4064 130.97 51.4064C131.315 51.4064 131.731 50.9579 132.219 50.0607C132.708 49.1628 133.196 48.1067 133.684 46.8911C134.172 45.6752 134.618 44.4596 135.019 43.244C135.422 42.0285 135.68 41.1021 135.795 40.4652C135.967 39.8865 136.254 39.4957 136.657 39.2931C137.058 39.0902 137.446 39.0325 137.819 39.1191C138.193 39.2061 138.509 39.4233 138.767 39.7706C139.026 40.1179 139.069 40.5518 138.896 41.0732C138.782 41.4205 138.595 42.0716 138.336 43.0269C138.078 43.9821 137.748 45.0383 137.346 46.1961C136.944 47.3543 136.47 48.5552 135.924 49.7997C135.378 51.0445 134.747 52.1446 134.029 53.0998C133.311 54.0551 132.507 54.7929 131.617 55.3142C130.726 55.8348 129.764 55.951 128.73 55.6615C127.065 55.1983 125.858 54.1853 125.112 52.622C124.652 54.0112 124.021 55.2707 123.216 56.3992C122.412 57.5282 121.378 58.3533 120.115 58.8743C118.909 59.2797 117.846 59.3659 116.927 59.1349C115.261 58.6717 113.941 57.6298 112.964 56.0088C111.988 54.3878 111.327 52.5061 110.983 50.3641C110.638 48.2226 110.609 45.9936 110.896 43.6783C111.183 41.3627 111.772 39.2785 112.663 37.4261C113.553 35.5737 114.745 34.1117 116.238 33.0409C117.731 31.9697 119.541 31.6367 121.665 32.0421ZM123.906 40.8129C123.791 39.8283 123.575 38.8731 123.26 37.9471C122.944 37.0206 122.47 36.4997 121.838 36.3838C120.919 36.2105 120.101 36.5432 119.382 37.3826C118.665 38.222 118.076 39.3363 117.616 40.7259C117.157 42.1151 116.827 43.6348 116.626 45.2847C116.424 46.9342 116.367 48.4975 116.453 49.9737C116.539 51.4499 116.769 52.709 117.143 53.7509C117.516 54.7929 118.076 55.3719 118.822 55.4878C119.569 55.6034 120.273 55.1983 120.933 54.2719C121.594 53.3459 122.168 52.1588 122.656 50.7118C123.145 49.2645 123.518 47.6581 123.776 45.8927C124.035 44.1265 124.078 42.4335 123.906 40.8129Z" fill="black"/>
</svg>
